<svg xmlns="http://www.w3.org/2000/svg" viewBox="0 0 852.56 455.82"><defs><style>.cls-1{fill:#92fbff;}.cls-2{fill:#f4ff8c;}.cls-3{fill:#ff91f9;}.cls-4{fill:#fff;}</style></defs><g id="Capa_2" data-name="Capa 2"><g id="Capa_11" data-name="Capa 11"><rect x="225.71" y="121.44" width="356.72" height="231.88" transform="translate(708.01 -119.33) rotate(100)"/><rect x="413.9" y="110.1" width="356.72" height="231.88" transform="translate(712.02 -396.47) rotate(80)"/><rect x="40.1" y="144.09" width="356.72" height="231.88" transform="translate(436.61 -0.26) rotate(80)"/><rect class="cls-1" x="434.68" y="86.41" width="356.72" height="231.88" transform="translate(705.86 -436.51) rotate(80)"/><path d="M525.23,404.7,461.32,42.23,700.84,0l63.91,362.46ZM474.45,51.43l60,340.13,217.19-38.29-60-340.13Z"/><rect class="cls-2" x="246.49" y="97.75" width="356.72" height="231.88" transform="translate(709.06 -167.6) rotate(100)"/><path d="M512.65,416,273.13,373.8,337,11.33,576.57,53.57ZM286.27,364.6l217.19,38.3,60-340.13L346.24,24.47Z"/><rect class="cls-3" x="60.88" y="120.4" width="356.72" height="231.88" transform="translate(430.44 -40.3) rotate(80)"/><path d="M151.43,438.69,87.52,76.23,327,34,391,396.46ZM100.65,85.42l60,340.14,217.19-38.3-60-340.13Z"/><path d="M822.22,119H683.42V54.08H612V119h-6.91c-16.41,0-49,4-66.72,14.84a118.09,118.09,0,0,0-30.16,26.4,172.58,172.58,0,0,0-30.62-26.43A89,89,0,0,0,428.32,119h-99.7v36.14H262V301.41c0,4.58-.88,8-2.61,10.13-.42.53-1.72,2.13-7,2.13-2.3,0-5.28-.32-6.42-1.83-2.06-2.74-2.5-7.18-2.5-10.43V157.07H171.57v.05H90.8c-14.72,0-31.89,1.19-47.62,10a80.51,80.51,0,0,0-32.17,33C3.7,213.86,0,229.65,0,247S3.7,280.21,11,294a80.23,80.23,0,0,0,32.31,33,97.68,97.68,0,0,0,48.15,12.69c19.62,0,37.15-5.3,52.12-15.74a108.06,108.06,0,0,0,28-28v5.56c0,17,3.39,31.79,10.08,44a68.53,68.53,0,0,0,28.88,28.43c11.89,6.16,25.59,9.28,40.72,9.28a92.6,92.6,0,0,0,41.3-9.18,71.34,71.34,0,0,0,30.36-28.36c7.22-12.3,10.89-27.12,10.91-44.05h91.52c24.93,0,43.61-11.35,52.59-16.8A120.81,120.81,0,0,0,508,259a178.76,178.76,0,0,0,32.31,26.2c17.72,11,34.35,16.35,50.83,16.35A93,93,0,0,0,612,299.05v40.58h71.45V180.84h36.2V339.63h72.1V180.84h41.84V119ZM464.63,213.16c-4.28,6.66-7.57,11.57-13,15.86l-1.93,1.51V196.17C454.15,200.66,459,206.3,464.63,213.16ZM612,209.23c0,9.23-.9,13.57-1.66,15.59-.53,1.43-1,1.9-2.8,3.67l-.44.43c-4.22,4.11-10.43,6.12-19,6.12-6.36,0-8.83-1.39-16.62-7.32-6.24-4.73-13.16-11.61-20.64-20.51A66.16,66.16,0,0,1,568,191c7-4.53,27.18-7.82,37.32-7.82H612ZM72.76,247a40.35,40.35,0,0,1,.92-9v19A48.63,48.63,0,0,1,72.76,247Z"/><path class="cls-4" d="M110.47,316a92.13,92.13,0,0,1-45.39-12A74.73,74.73,0,0,1,35,273.31C28.15,260.38,24.67,245.48,24.67,229S28.15,197.69,35,184.75A75,75,0,0,1,65,154.08c11.6-6.51,25-9.29,44.84-9.29h80.3V200.2H110.25c-7.81,0-13.6,2.36-17.7,7.22-4.29,5.08-6.46,12.35-6.46,21.61,0,10.76,2.4,18.73,7.12,23.7a20,20,0,0,0,5.14,3.83V211.34H190V268l-.77,1.32a100.93,100.93,0,0,1-29.92,32C145.35,311,128.9,316,110.47,316Zm-9.79-58.33a41,41,0,0,0,15.14,2.46,28.73,28.73,0,0,0,12.1-2.46Z"/><path d="M184.43,150.46v44.07H110.25q-14.25,0-22,9.24T80.42,229q0,18.48,8.69,27.6t26.71,9.13q17.13,0,27.6-13.8H104V217h80.36v49.42a94.93,94.93,0,0,1-28.27,30.16c-12,8.38-27.24,13.7-45.64,13.7A86.45,86.45,0,0,1,67.85,299,68.8,68.8,0,0,1,40,270.66Q30.35,252.41,30.34,229T40,187.41A69.1,69.1,0,0,1,67.74,159c12-6.75,25.68-8.56,42.06-8.56h74.63m11.34-11.34h-86c-14.72,0-31.89,1.19-47.62,10a80.51,80.51,0,0,0-32.17,33C22.7,195.86,19,211.65,19,229S22.7,262.21,30,276a80.23,80.23,0,0,0,32.31,33,97.68,97.68,0,0,0,48.15,12.69c19.62,0,37.15-5.3,52.12-15.74a106.54,106.54,0,0,0,31.58-33.76l1.54-2.64V205.86h.06V139.12ZM92.68,239a48.46,48.46,0,0,1-.92-10,40.35,40.35,0,0,1,.92-9v19Z"/><path class="cls-4" d="M270.25,359.42c-14.21,0-27-2.91-38.11-8.65a62.82,62.82,0,0,1-26.52-26.12c-6.22-11.33-9.38-25.2-9.38-41.24V144.74h60.53V283.41c0,6,1.23,10.64,3.64,13.84,2.08,2.75,5.66,4.09,10.95,4.09s9.09-1.39,11.39-4.24c2.56-3.17,3.86-7.78,3.86-13.69V142.8h60.54V283.41c0,15.95-3.41,29.83-10.13,41.27a65.67,65.67,0,0,1-28,26.14A86.87,86.87,0,0,1,270.25,359.42Z"/><path d="M341.48,148.47V283.41q0,22.48-9.35,38.4a59.86,59.86,0,0,1-25.6,23.93q-16.25,8-36.28,8t-35.51-8a57.06,57.06,0,0,1-24.15-23.82q-8.68-15.8-8.68-38.51v-133H251.1v133q0,10.9,4.79,17.25T271.36,307q10.68,0,15.8-6.35t5.12-17.25V148.47h49.2m11.34-11.34H280.94V283.41c0,4.58-.87,8-2.6,10.13-.42.53-1.72,2.13-7,2.13-2.3,0-5.28-.32-6.42-1.83-2.06-2.74-2.5-7.18-2.5-10.43V139.07H190.57V283.41c0,17,3.39,31.79,10.08,44a68.53,68.53,0,0,0,28.88,28.43c11.89,6.16,25.59,9.28,40.72,9.28a92.6,92.6,0,0,0,41.3-9.18,71.34,71.34,0,0,0,30.36-28.36c7.24-12.32,10.91-27.17,10.91-44.14V137.13Z"/><polygon class="cls-4" points="744.29 315.96 744.29 157.18 702.89 157.18 702.89 106.66 846.89 106.66 846.89 157.18 805.04 157.18 805.04 315.96 744.29 315.96"/><path d="M841.22,112.33v39.18H799.38V310.29H750V151.51h-41.4V112.33H841.22M852.56,101H697.22v61.85h41.4V321.63h72.1V162.84h41.84V101Z"/><rect class="cls-4" x="636.64" y="41.75" width="60.11" height="60.11"/><path d="M691.08,47.42V96.19H642.31V47.42h48.77m11.34-11.34H631v71.45h71.45V36.08Z"/><path class="cls-4" d="M636.64,316V273.67a90.16,90.16,0,0,1-26.5,4.16c-15.39,0-31-5.07-47.84-15.5-12.07-7.48-24.07-17.55-35.72-30A115.21,115.21,0,0,1,494,261.85c-9.19,5.59-26.31,16-49.65,16h-91V106.66h94a83.33,83.33,0,0,1,46.1,13.86c11.69,7.75,23.13,18,34.11,30.57a112.78,112.78,0,0,1,32.77-30.42c15.8-9.67,46.79-14,63.76-14h5.63l.3,52.89h-5.7c-10.95,0-32.13,3.4-40.39,8.73a73.42,73.42,0,0,0-21.2,21.2c8.83,10.86,17,19.18,24.34,24.75,8.26,6.28,11.87,8.48,20.06,8.48,9.95,0,17.66-2.61,22.93-7.74l.43-.42c3.45-3.35,6.18-6,6.18-23.32V106.66h60.11V316ZM439.47,227.09c19.88,0,27-5.64,34.64-11.61,6.5-5.11,10.24-10.95,15-18.35.49-.78,1-1.56,1.52-2.36-9.59-11.87-17.14-20.52-24.19-26.4-4.88-4.07-13.17-8.74-34.15-8.74H414v8h49v48.51H414v10.92Z"/><path d="M691.08,112.33v198H642.31V265.68a88.54,88.54,0,0,1-32.17,6.48c-16.56,0-31.51-6.36-44.85-14.65s-26.44-19.67-39.28-34.2a109.27,109.27,0,0,1-35,33.7c-9.18,5.57-25.25,15.15-46.71,15.15H359V112.33h88.36a77.6,77.6,0,0,1,43,12.92q19.5,12.93,37.75,35.22a107.29,107.29,0,0,1,35.22-35c14.36-8.78,43.57-13.17,60.8-13.17l.23,41.55c-10.47,0-33.5,3.22-43.46,9.63a79.76,79.76,0,0,0-25.08,26.35q15.19,19.26,27.87,28.89c8.44,6.42,13.34,9.62,23.48,9.62,10.8,0,20.13-2.75,26.89-9.34,4.36-4.26,8.32-7.41,8.32-27.8v-78.9h48.77m-282.71,61h49V210.5h-49v22.26h31.1c20.86,0,29.4-5.94,38.15-12.82,9-7.1,13.23-15.38,20-25.52-10.82-13.51-19.45-23.64-27.56-30.4-7.41-6.18-18-10.06-37.78-10.06H408.37v19.37m294-72.34H624.06c-16.41,0-49,4-66.72,14.84a118.09,118.09,0,0,0-30.16,26.4,172.58,172.58,0,0,0-30.62-26.43A89,89,0,0,0,447.32,101h-99.7V283.5h96.72c24.93,0,43.61-11.35,52.59-16.8A120.81,120.81,0,0,0,527,241a178.76,178.76,0,0,0,32.31,26.2c17.72,11,34.35,16.35,50.83,16.35A93.3,93.3,0,0,0,631,281.07v40.56h71.45V101ZM569.84,189.21A66.16,66.16,0,0,1,587,173c7-4.53,27.18-7.82,37.32-7.82H631v26c0,9.23-.9,13.57-1.66,15.59-.53,1.43-1,1.9-2.8,3.67l-.44.43c-4.22,4.11-10.43,6.12-19,6.12-6.36,0-8.83-1.39-16.62-7.32-6.24-4.73-13.16-11.62-20.64-20.51ZM468.68,212.53V178.17c4.47,4.49,9.34,10.13,14.95,17-4.28,6.66-7.57,11.57-13,15.86l-1.93,1.51Z"/></g></g></svg>
