<svg id="Capa_11" data-name="Capa 11" xmlns="http://www.w3.org/2000/svg" viewBox="0 0 852.56 455.82"><defs><style>.cls-1{fill:#92fbff;}.cls-2{fill:#f4ff8c;}.cls-3{fill:#ff91f9;}.cls-4{fill:#fff;}</style></defs><rect x="339.43" y="433.53" width="356.72" height="231.88" transform="translate(1035.1 -177.13) rotate(100)"/><rect x="527.62" y="422.19" width="356.72" height="231.88" transform="translate(999.63 -562.65) rotate(80)"/><rect x="153.82" y="456.19" width="356.72" height="231.88" transform="translate(724.21 -166.44) rotate(80)"/><rect class="cls-1" x="548.4" y="398.5" width="356.72" height="231.88" transform="translate(993.46 -602.69) rotate(80)"/><path d="M639,716.79,575,354.33l239.52-42.24,63.91,362.47ZM588.17,363.52l60,340.14,217.19-38.3-60-340.13Z" transform="translate(-113.72 -312.09)"/><rect class="cls-2" x="360.21" y="409.84" width="356.72" height="231.88" transform="translate(1036.16 -225.4) rotate(100)"/><path d="M626.37,728.13,386.85,685.89l63.91-362.46,239.52,42.23ZM400,676.69,617.17,715l60-340.13L460,336.56Z" transform="translate(-113.72 -312.09)"/><rect class="cls-3" x="174.59" y="432.49" width="356.72" height="231.88" transform="translate(718.05 -206.48) rotate(80)"/><path d="M265.15,750.78,201.24,388.32l239.52-42.23,63.91,362.46ZM214.37,397.52l60,340.13,217.19-38.3-60-340.13Z" transform="translate(-113.72 -312.09)"/><path d="M935.94,431.08H797.14V366.17H725.69v64.91h-6.91c-16.42,0-49,4-66.72,14.84a118.32,118.32,0,0,0-30.17,26.4,172.59,172.59,0,0,0-30.61-26.43A89,89,0,0,0,542,431.08h-99.7v36.14H375.66V613.51c0,4.58-.87,8-2.6,10.13-.42.52-1.72,2.12-7,2.12-2.3,0-5.28-.32-6.42-1.83-2.07-2.74-2.5-7.18-2.5-10.42V469.17H285.29v0H204.52c-14.72,0-31.89,1.19-47.62,10a80.54,80.54,0,0,0-32.18,32.95c-7.3,13.77-11,29.57-11,46.94s3.7,33.18,11,46.94A80.25,80.25,0,0,0,157,639a97.68,97.68,0,0,0,48.15,12.69c19.62,0,37.15-5.3,52.12-15.74a108.06,108.06,0,0,0,28-28v5.57c0,17,3.39,31.79,10.08,44a68.42,68.42,0,0,0,28.88,28.43c11.89,6.16,25.59,9.28,40.72,9.28A92.52,92.52,0,0,0,406.26,686a71.28,71.28,0,0,0,30.36-28.36c7.23-12.3,10.9-27.12,10.91-44h91.53c24.92,0,43.61-11.35,52.59-16.8A120.58,120.58,0,0,0,621.71,571,178.73,178.73,0,0,0,654,597.24c17.72,11,34.35,16.35,50.82,16.35a93,93,0,0,0,20.84-2.45v40.58h71.45V492.94h36.2V651.72h72.09V492.94h41.85V431.08ZM578.35,525.25c-4.28,6.66-7.57,11.58-13,15.87l-1.93,1.5V508.26C567.87,512.76,572.74,518.39,578.35,525.25Zm147.34-3.93c0,9.23-.9,13.58-1.66,15.59-.54,1.44-1,1.91-2.8,3.67l-.44.43c-4.23,4.12-10.43,6.12-19,6.12-6.36,0-8.83-1.39-16.62-7.32-6.24-4.73-13.16-11.61-20.65-20.5a66.14,66.14,0,0,1,17.13-16.17c7.05-4.54,27.19-7.83,37.33-7.83h6.68Zm-539.21,37.8a40.35,40.35,0,0,1,.92-9v19A48.57,48.57,0,0,1,186.48,559.12Z" transform="translate(-113.72 -312.09)"/><path class="cls-4" d="M224.19,628.05a92.13,92.13,0,0,1-45.39-12,74.77,74.77,0,0,1-30.07-30.67c-6.86-12.94-10.34-27.84-10.34-44.29s3.48-31.34,10.34-44.28a75,75,0,0,1,30-30.67c11.6-6.51,25-9.29,44.84-9.29h80.3v55.41H224c-7.81,0-13.6,2.36-17.7,7.22-4.29,5.08-6.46,12.35-6.46,21.61,0,10.76,2.4,18.73,7.12,23.7a19.59,19.59,0,0,0,5.14,3.83V523.43h91.69v56.62l-.77,1.32a100.83,100.83,0,0,1-29.92,32C259.07,623.1,242.62,628.05,224.19,628.05Zm-9.79-58.33a40.94,40.94,0,0,0,15.13,2.46,28.77,28.77,0,0,0,12.11-2.46Z" transform="translate(-113.72 -312.09)"/><path d="M298.15,462.55v44.07H224q-14.25,0-22,9.24t-7.79,25.26q0,18.48,8.68,27.61t26.71,9.12q17.15,0,27.61-13.8h-39.4V529.1h80.35v49.42a94.82,94.82,0,0,1-28.27,30.16c-12,8.39-27.23,13.7-45.63,13.7a86.34,86.34,0,0,1-42.62-11.25,68.8,68.8,0,0,1-27.83-28.38q-9.68-18.25-9.68-41.63t9.68-41.62a69,69,0,0,1,27.71-28.38c12-6.75,25.69-8.57,42.07-8.57h74.63m11.34-11.34h-86c-14.72,0-31.89,1.19-47.62,10a80.54,80.54,0,0,0-32.18,32.95c-7.3,13.77-11,29.57-11,46.94s3.7,33.18,11,46.94A80.25,80.25,0,0,0,176,621a97.68,97.68,0,0,0,48.15,12.69c19.62,0,37.15-5.3,52.12-15.74a106.61,106.61,0,0,0,31.58-33.75l1.54-2.65V518h.06V451.21ZM206.4,551.09a48.57,48.57,0,0,1-.92-10,40.35,40.35,0,0,1,.92-9v19Z" transform="translate(-113.72 -312.09)"/><path class="cls-4" d="M384,671.52c-14.21,0-27-2.91-38.12-8.65a62.94,62.94,0,0,1-26.51-26.13c-6.22-11.33-9.38-25.2-9.38-41.23V456.84h60.53V595.51c0,6,1.23,10.63,3.64,13.83,2.08,2.75,5.66,4.09,10.95,4.09s9.09-1.39,11.39-4.24c2.56-3.17,3.86-7.78,3.86-13.68V454.89h60.54V595.51c0,15.94-3.41,29.82-10.14,41.26a65.68,65.68,0,0,1-28,26.15A87,87,0,0,1,384,671.52Z" transform="translate(-113.72 -312.09)"/><path d="M455.2,460.56v135q0,22.47-9.35,38.39a59.86,59.86,0,0,1-25.6,23.93,81,81,0,0,1-36.28,8q-20,0-35.51-8A57.06,57.06,0,0,1,324.31,634q-8.69-15.79-8.68-38.5v-133h49.19v133q0,10.9,4.79,17.25t15.47,6.34q10.68,0,15.8-6.34T406,595.51V460.56h49.2m11.34-11.34H394.66V595.51c0,4.58-.87,8-2.6,10.13-.42.52-1.72,2.12-7,2.12-2.3,0-5.28-.32-6.42-1.83-2.07-2.74-2.5-7.18-2.5-10.42V451.17H304.29V595.51c0,17,3.39,31.79,10.08,44a68.42,68.42,0,0,0,28.88,28.43c11.89,6.16,25.59,9.28,40.72,9.28A92.52,92.52,0,0,0,425.26,668a71.28,71.28,0,0,0,30.36-28.36c7.24-12.32,10.92-27.17,10.92-44.13V449.22Z" transform="translate(-113.72 -312.09)"/><polygon class="cls-4" points="744.29 315.96 744.29 157.18 702.89 157.18 702.89 106.66 846.89 106.66 846.89 157.18 805.04 157.18 805.04 315.96 744.29 315.96"/><path d="M954.94,424.42V463.6H913.09V622.38H863.68V463.6h-41.4V424.42H954.94m11.34-11.34H810.94v61.86h41.4V633.72h72.09V474.94h41.85V413.08Z" transform="translate(-113.72 -312.09)"/><rect class="cls-4" x="636.64" y="41.75" width="60.11" height="60.11"/><path d="M804.8,359.51v48.77H756V359.51H804.8m11.34-11.34H744.69v71.45h71.45V348.17Z" transform="translate(-113.72 -312.09)"/><path class="cls-4" d="M750.36,628.05V585.76a89.85,89.85,0,0,1-26.51,4.16c-15.39,0-31-5.07-47.83-15.5-12.08-7.48-24.07-17.55-35.72-30a115.06,115.06,0,0,1-32.59,29.5c-9.2,5.59-26.31,16-49.65,16H467V418.75h94a83.24,83.24,0,0,1,46.1,13.87c11.68,7.74,23.13,18,34.11,30.56A112.78,112.78,0,0,1,674,432.76c15.8-9.66,46.79-14,63.76-14h5.63l.3,52.89H738c-11,0-32.13,3.4-40.4,8.73a73.39,73.39,0,0,0-21.19,21.2c8.83,10.86,17,19.18,24.34,24.75,8.25,6.28,11.87,8.48,20.06,8.48,9.95,0,17.66-2.6,22.93-7.74l.43-.41c3.45-3.35,6.18-6,6.18-23.33V418.75h60.11v209.3ZM553.18,539.19c19.89,0,27.06-5.65,34.65-11.62,6.5-5.11,10.24-11,15-18.35l1.52-2.36c-9.58-11.87-17.13-20.52-24.18-26.4-4.88-4.06-13.18-8.73-34.15-8.73H527.76v8h49v48.52h-49v10.92Z" transform="translate(-113.72 -312.09)"/><path d="M804.8,424.42v198H756V577.77a88.5,88.5,0,0,1-32.17,6.48c-16.55,0-31.5-6.36-44.84-14.64s-26.44-19.68-39.28-34.21a109.26,109.26,0,0,1-35,33.7c-9.18,5.57-25.26,15.15-46.71,15.15H472.68V424.42H561a77.6,77.6,0,0,1,43,12.92q19.5,12.93,37.75,35.22a107.39,107.39,0,0,1,35.22-35c14.36-8.78,43.56-13.17,60.8-13.17L738,466c-10.48,0-33.51,3.22-43.47,9.63A80,80,0,0,0,669.46,502q15.21,19.27,27.88,28.89c8.44,6.42,13.34,9.63,23.48,9.63,10.8,0,20.12-2.76,26.89-9.34,4.36-4.26,8.31-7.42,8.31-27.81v-78.9H804.8m-282.71,61h49V522.6h-49v22.26h31.09c20.87,0,29.4-6,38.16-12.83,9-7.1,13.23-15.38,20-25.51-10.82-13.51-19.45-23.65-27.56-30.41-7.42-6.18-18-10.05-37.78-10.05H522.09v19.36m294-72.34H737.78c-16.42,0-49,4-66.72,14.84a118.32,118.32,0,0,0-30.17,26.4,172.59,172.59,0,0,0-30.61-26.43A89,89,0,0,0,561,413.08h-99.7V595.59h96.72c24.92,0,43.61-11.35,52.59-16.8A120.58,120.58,0,0,0,640.71,553,178.73,178.73,0,0,0,673,579.24c17.72,11,34.35,16.35,50.82,16.35a92.74,92.74,0,0,0,20.84-2.43v40.56h71.45V413.08ZM683.55,501.31a66.14,66.14,0,0,1,17.13-16.17c7.05-4.54,27.19-7.83,37.33-7.83h6.68v26c0,9.23-.9,13.58-1.66,15.59-.54,1.44-1,1.91-2.8,3.67l-.44.43c-4.23,4.12-10.43,6.12-19,6.12-6.36,0-8.83-1.39-16.62-7.32-6.24-4.73-13.16-11.61-20.65-20.5ZM582.4,524.62V490.26c4.47,4.5,9.34,10.13,15,17-4.28,6.66-7.57,11.58-13,15.87l-1.93,1.5Z" transform="translate(-113.72 -312.09)"/></svg>